<?xml version="1.0" encoding="UTF-8"?> <!-- Generator: Adobe Illustrator 25.2.0, SVG Export Plug-In . SVG Version: 6.00 Build 0) --> <svg xmlns:svg="http://www.w3.org/2000/svg" xmlns="http://www.w3.org/2000/svg" xmlns:xlink="http://www.w3.org/1999/xlink" version="1.1" id="svg1962" x="0px" y="0px" viewBox="0 0 602.4 161.8" style="enable-background:new 0 0 602.4 161.8;" xml:space="preserve"> <g> <path d="M156.1,113.4c-2.2,0-4.5,0-6.7,0c0,0,0,0.1,0,0.1h0h-0.2v0.2c0.2,9.9-0.5,15.3-2.1,18.1c-0.6,1-1.3,1.7-2.1,2.2 c-0.1,0.1-0.2,0.1-0.3,0.2c-0.1,0.1-0.3,0.1-0.4,0.2c-1.1,0.4-2.3,0.6-3.5,0.6c-2.7,0.1-5.8,0-8-1.5c0,0,0,0,0,0 c-0.2-0.2-0.5-0.4-0.7-0.6c-1-1-1.7-2.5-2.3-4.5c-1.5-5.4-1.7-15-1.7-31.4c0-0.6,0-1.5,0-2.6h29.3h0.2v-0.2 c0-16.6-1.6-27.7-5.2-34.8c-0.4-0.7-0.7-1.3-1.1-1.9c-0.1-0.2-0.2-0.3-0.3-0.5c0-0.1-0.1-0.1-0.1-0.2c-0.3-0.4-0.5-0.8-0.8-1.1 c-1.8-2.2-4.1-4-6.8-5c-0.8-0.2-1.6-0.4-2.5-0.6c-1.8-0.4-3.8-0.6-5.9-0.6c-7.6,0-14.3,4-19.1,12S108,81.4,108,97.3 c0,17.4,2.7,29.1,7.4,36.4c4.7,7.3,11.4,10.3,19.4,10.3c7.6,0,13.4-1.7,17.1-6.3c0.3-0.4,0.6-0.8,0.9-1.3c0.5-0.7,0.9-1.4,1.2-2.2 c2.1-4.8,2.5-10.2,2.4-15.5C156.4,116.9,156.3,115.2,156.1,113.4z M139.1,59.7c0,0.1,0.1,0.2,0.1,0.3c0.2,0.6,0.4,1.3,0.5,2 c0,0,0,0.1,0,0.1c0.3,1.8,0.3,3.7,0.4,5.5c0.2,6.7,0,13.3,0.1,20c-4,0-8.1,0-12.2,0c0.2-6.9,0.2-13.8,0.8-20.7 c0.3-2.6,0.5-5.4,1.9-7.7c0.8-1.5,2.5-1.9,4.1-1.8c1.5,0,3.3,0.3,4,1.8C138.9,59.3,139,59.5,139.1,59.7z"></path> <path d="M109.3,135.8C109.3,135.8,109.3,135.7,109.3,135.8c-1.3-0.2-2.7,0.1-3.9-0.2c-0.7-0.3-1.2-0.8-1.5-1.6 c-0.6-1.3-0.8-3.3-0.8-6V35.3c0-2.8,0.2-4.7,0.8-6c0.6-1.3,1.5-1.8,3-1.8h2.6h0.2v-0.2v-6.2v-0.2h-0.2h-0.2h-29h-0.2 c0,0-0.1,0-0.1,0C75,46,70.1,71.1,65.1,96.2L49.3,21v-0.2h-0.2H19.2H19v0.1c0,0-0.1,0-0.1,0v0.2H19v6.2v0.2h0.2h2.5 c1.5,0,2.6,0.9,3.5,2.5c0.7,1.3,1.1,3.3,1.3,5.5c0,0.8,0,1.7,0,2.5v88.5c0,2-0.3,3.8-0.7,5.3c-0.3,0.9-0.7,1.8-1.3,2.5 c-0.8,1-1.9,1.6-3.2,1.5c-0.7,0.1-1.7-0.2-2.2,0.1H19v0.2v6.2v0.2h0.2h24.1h0.2v-0.2v-0.1V136v-0.2c-0.7,0-1.3,0-2,0H40 c-0.5,0-1-0.1-1.5-0.2c-1.3-0.5-2.1-1.5-2.6-2.8c-1.5-3.8-0.9-7.9-1.1-11.9V50.8L54,142.1v0.2h0.2h9.3h0.2v-0.2l19-90.9 c0,26,0,51.9,0,78c-0.1,2.1-0.2,4.5-1.8,6c-0.7,0.5-1.7,0.6-2.7,0.5c-1.3,0-2.6,0-3.9,0c0,2.1,0,4.3,0,6.4c0.1,0,0.1,0,0.2,0v0.1 v0.2h0.2h34.8h0.2v-0.2V136v-0.2h-0.2H109.3z"></path> <path d="M228.4,44.6c2.5-2.8,4.5-6.3,4.9-10.2c0.4-4.3-1.6-8.8-5-11.4c-1-0.8-2.4-1.6-3.7-1.9c-1.2-0.3-2.3-0.4-3.4-0.3 c-2.3,0.2-4.4,1.5-5.9,3.3c-0.9,1-1.7,2.6-1.8,4.1c-0.5,3.4,1.3,6.6,3.8,8.7c1.5,1.5,3.4,2.5,5.3,3.4c-3,3.4-6.3,6.5-9.5,9.6 l-0.1,0.2l0.1,0.1c1.3,1.4,2.7,2.9,4,4.3l0.1,0.2l0.2-0.1C221.3,51.6,225.2,48.4,228.4,44.6z"></path> <path d="M450.2,124.2c0,0.1,0,0.1,0,0.2c-0.1,0-0.1,0-0.2,0h-0.2v0.2c0,2.9,0.1,5.7-0.4,8.5c0,0.3-0.2,0.6-0.4,0.8 c-0.6,0.4-1.5,0.4-2.1,0.2c-0.2-0.2-0.3-0.4-0.4-0.6c-0.1-0.2-0.1-0.3-0.1-0.5c-0.2-4.2-0.1-8.5-0.1-12.7c0-16.3,0-32.5,0-48.8 c0-2.2-0.3-4.4-0.7-6.6c-0.6-3.2-1.7-6.2-3.8-8.8c-1.6-2-3.7-3.6-6.1-4.6c-0.9-0.4-1.9-0.7-2.9-1c-3.4-1.1-7.1-1.2-10.7-1.1 c-5.2,0.2-10.4,1.7-14.6,4.9c-1.9,1.7-3.8,3.7-4.7,6.2c-1.8,4.4-0.9,9.7,1.8,13.5c1.2,1.6,2.8,2.9,4.9,3.4c2.9,0.7,6-0.5,7.9-2.6 c2.1-2,2.7-5.4,1.4-8.1c-0.1-0.2-0.2-0.4-0.3-0.6c0,0,0,0,0,0c-0.2-0.3-0.4-0.6-0.6-0.9c0,0,0-0.1-0.1-0.1 c-0.6-0.8-1.3-1.6-2.1-2.3c-1.5-1.4-3.3-2.6-5.1-3.5c1.9-1.3,4.3-1.8,6.6-2.2c2.6-0.2,5.5-0.3,7.8,0.9c0.9,0.6,1.7,1.3,2,2.4 c1,3.2,0.5,6.7,0.6,10.1c0,4.4,0,8.9,0,13.3c-5.9,2-11.8,4-17.2,7.1c-3.9,2.3-7.4,5.4-9.5,9.5c-2.3,4.6-2.9,9.8-3.2,14.9 c-0.3,6.2-0.2,12.5,1.8,18.5c1,2.7,2.5,5.3,4.7,7.3c2.8,2.5,6.6,3.3,10.3,3.1c4.2-0.2,8.3-2.1,11-5.2c1.5-1.6,2.8-3.4,3.8-5.4 c0.7,3,1.5,6.2,4.1,8.2c2.4,2.1,5.9,2.3,8.9,2.4c3.5,0,7.4-0.6,9.9-3.4c2-2.1,2.8-5,3.3-7.7c0.4-2.8,0.5-5.7,0.5-8.5v-0.2h0 c0-0.1,0-0.1,0-0.2C454.1,124.2,452.1,124.2,450.2,124.2z M414,57.4C414,57.4,414,57.4,414,57.4C414,57.4,414,57.4,414,57.4z M413.4,57.6c-0.2,0.1-0.3,0.1-0.5,0.2C413,57.7,413.2,57.7,413.4,57.6z M412.7,57.9c-0.8,0.3-1.6,0.7-2.4,1.2 C411,58.6,411.8,58.2,412.7,57.9z M426.6,130.1c-0.7,1.4-1.9,2.3-3.4,2.7c-0.5,0.1-1,0.2-1.6,0.2c-1.5,0.1-3.2-0.3-4.1-1.6 c-1.1-1.6-1.1-3.8-1.3-5.7c-0.3-5.7-0.2-11.4,0-17.1c0.3-4.4,0.7-9.1,3.2-12.8c0.9-1,1.9-2.3,2.9-2.9c1.6-1.5,3.7-2.5,5.5-3.7 c0.2,10.9,0.2,21.7,0.2,32.6C428,124.6,427.9,127.5,426.6,130.1z M403.2,139.3c0.2,0.3,0.5,0.6,0.8,0.8 C403.7,139.8,403.4,139.6,403.2,139.3z M425.5,138.7c-2.7,3-6.7,4.9-10.8,5.1c-2.8,0.2-5.7-0.3-8.2-1.7c2.4,1.3,5.3,1.8,8.1,1.5 c3.7-0.2,7.3-1.6,9.9-4.2c2.1-1.9,3.7-4.2,5-6.7c0,0.1,0,0.1,0.1,0.2l-0.1,0.1C428.4,135.1,427.1,137,425.5,138.7z M405.6,141.5 c0.2,0.1,0.4,0.3,0.6,0.4C406.1,141.8,405.8,141.7,405.6,141.5z M455.4,132.9c-0.5,2.7-1.3,5.6-3.2,7.5c-2.3,2.6-6.1,3.3-9.6,3.3 c-1.6-0.1-3.4-0.2-5-0.6c0.1,0,0.3,0.1,0.4,0.1c3.7,0.6,7.8,0.6,11.3-0.9c2.7-1.3,4.5-3.9,5.4-6.7c0.5-1.8,0.8-3.6,1-5.4 C455.6,131.1,455.5,132,455.4,132.9z"></path> <path d="M215.1,135.6c-0.6,0-1.2-0.2-1.6-0.6c-0.6-1.5-0.3-3.2-0.4-4.8c0-21.6,0-43.2,0-64.8c-0.2-3.8-0.8-7.8-3.1-11 s-6.3-4.7-10.1-4.9c-1.3-0.1-2.4-0.1-3.6-0.1c-4.1,0.3-8,2.1-10.9,5c-1.5,1.5-2.9,3.1-4,4.8c0-3.1,0-6.1,0-9.2v-0.2h-0.2 c-8.1,0.5-16.2,1.1-24.2,1.7h-0.2v0.2c0,2.1,0,4.3,0,6.4v0.2h0.2c1.6,0.1,3.2-0.2,4.6,0.2c0.6,0.2,0.9,0.7,1.1,1.4 c0.2,0.7,0.3,1.4,0.3,2c0.1,18.3,0,36.6,0,54.9c0,5.5,0.1,11.1,0,16.6c0,0.5-0.2,1-0.5,1.4c-0.3,0.4-0.6,0.6-1.1,0.7 c-1.4,0.2-2.8,0-4.2,0.1H157v0.2c0,2.1,0,4.3,0,6.4v0.2h0.2c9.5,0,18.9,0,28.4,0h0.2v-0.2c0-2.1,0-4.3,0-6.4v-0.2h-0.2 c-1.2-0.1-2.4,0.2-3.4-0.3c-0.3-0.5-0.4-1.1-0.4-1.8c0-0.7,0.1-1.4,0-2c0-19.3,0-38.6,0-57.8c0.1-3.2,0.2-6.6,1.8-9.4 c0.4-0.7,1-1.4,1.6-1.8c1.9-1.3,4.5-1.6,6.7-0.8c0.7,0.3,1.2,0.8,1.6,1.6c0.2,0.4,0.3,0.8,0.4,1.1c0.1,0.5,0.2,1,0.3,1.5 c0,0.3,0.1,0.7,0.1,1c0.1,0.9,0,1.9,0.1,2.8c0,0.9,0,1.8,0,2.7c0,1.5,0,2.9,0,4.4c0,19,0,37.9,0,56.9c-0.1,0.6-0.3,1.2-0.7,1.6 c-0.2,0.2-0.5,0.3-1,0.3c-0.9,0-1.7,0-2.6,0h-0.2v0.2c0,2.1,0,4.3,0,6.4v0v0.2h0.2c9,0,18,0,27,0h0.2v-0.2c0-2.1,0-4.3,0-6.4v-0.2 h-0.2C216.4,135.5,215.7,135.6,215.1,135.6z M162.3,58.8c-0.1-0.1-0.2-0.2-0.3-0.2C162.2,58.6,162.3,58.7,162.3,58.8z M161.9,58.4 c0,0-0.1,0-0.1-0.1C161.8,58.4,161.9,58.4,161.9,58.4z M194.1,134.9c0,0,0-0.1,0.1-0.1C194.1,134.8,194.1,134.8,194.1,134.9z M162.5,59c0.1,0.1,0.1,0.2,0.2,0.2C162.6,59.1,162.5,59,162.5,59z M162.9,59.8c0-0.1-0.1-0.2-0.2-0.4c0.3,0.7,0.5,1.5,0.5,2.3 c0.1,4,0,8,0,12c0-3.9,0-7.9,0-11.8C163.2,61.2,163.1,60.5,162.9,59.8z M162.4,135.3c-0.1,0-0.1,0.1-0.2,0.1 C162.3,135.4,162.3,135.4,162.4,135.3z M161.9,135.6c0.1,0,0.1,0,0.2-0.1C162,135.6,162,135.6,161.9,135.6z"></path> <path d="M486.1,135.7c-0.8,0-1.6,0-2.4,0c-0.6,0-1.2-0.1-1.8-0.2c-0.6-0.2-0.9-0.7-1.1-1.2s-0.2-1.3-0.2-1.9c0-37.8,0-75.5,0-113.3 v-0.2h-0.2v0c0,0-0.1,0-0.1,0c0,0,0,0,0,0c-0.2,0-0.3,0-0.5,0c-7.9,0.6-15.9,1.3-23.8,1.9h-0.1l-0.1,0.1c-0.2,0.3-0.1,0.7-0.1,1.1 c0,0.4,0,0.8,0,1.2c0,1.4,0,2.8,0,4.2v0.2h0.2c1.8,0.1,3.6-0.2,5.2,0.3c0.5,0.4,0.7,1.1,0.8,1.8c0.1,0.7,0,1.5,0,2.2 c0,33.8,0,67.6,0,101.4c0,0.5,0,1-0.2,1.5c-0.2,0.4-0.5,0.8-1,0.8c-0.9,0.1-1.7,0.1-2.6,0.1h-0.1c0,0,0,0,0,0v0h-0.1v0.2 c0,2.1,0,4.3,0,6.4v0.2h0.2c9.6,0,19.2,0,28.8,0h0.2v-0.2c0-2.1,0-4.3,0-6.4v-0.2h-0.2C486.6,135.7,486.3,135.7,486.1,135.7z"></path> <path d="M584.5,135.5c-0.7-0.1-1.4,0-2,0s-1.2-0.2-1.6-0.6c-0.6-1.5-0.3-3.2-0.4-4.8c0-21.6,0-43.2,0-64.8c-0.2-4-0.9-8.2-3.4-11.4 c-1.7-2.1-4.1-3.4-6.7-4c-4.1-0.9-8.5-0.9-12.3,1c-3.3,1.5-5.8,4.1-7.9,6.9c-0.2,0.3-0.5,0.7-0.7,1c-0.1,0.1-0.1,0.2-0.2,0.3 c0-13.3,0-26.7,0-40v-0.2H549c-8.1,0.6-16.3,1.3-24.4,1.9h-0.1l-0.1,0.1c-0.2,0.3-0.1,0.7-0.1,1.1c0,0.4,0,0.8,0,1.2 c0,1.4,0,2.8,0,4.2v0.2h0.2c1.6,0.1,3.1-0.3,4.5,0.2c0.6,0.2,0.9,0.7,1.1,1.4c0.2,0.6,0.3,1.4,0.3,2c0,34.1,0,68.2,0,102.3 c0,0.5-0.2,1-0.5,1.4c-0.3,0.4-0.6,0.6-1.1,0.7c-0.7,0.1-1.4,0.1-2.2,0.1h-0.2v0.2c0,2.1,0,4.3,0,6.4v0.2h0.2c8.8,0,17.6,0,26.4,0 h0.2v-0.2c0-2.1,0-4.3,0-6.4v-0.2H553c-1.2-0.1-2.4,0.2-3.4-0.3c-0.3-0.4-0.4-0.9-0.4-1.5c0-0.6,0.1-1.2,0-1.8 c0-19.5,0-38.9,0-58.3c0.1-3.2,0.2-6.6,1.8-9.4c0.5-0.7,0.9-1.3,1.6-1.8c0.8-0.4,1.7-1,2.7-1.1c1.5-0.2,3.3-0.2,4.5,0.5 c0.8,0.6,1.3,1.6,1.6,2.6c0.2,1,0.3,2.2,0.4,3.2c0.1,7.4,0,14.9,0,22.3c0,14.5,0,29.1,0,43.6c0,0.5-0.2,1-0.5,1.3 c-0.3,0.4-0.7,0.6-1.2,0.5c-0.8,0-1.7,0-2.6,0h-0.2v0.2c0,2.1,0,4.3,0,6.4v0.2h0.1v0c9,0,18,0,27,0v0c0,0,0.1,0,0.1,0h0.2v-0.2 c0-2.1,0-4.3,0-6.4v-0.2H584.5z M549.1,134.6c-0.2-0.8,0-1.7-0.1-2.5c0.1,0.5,0,1.2,0,1.8C549,134.1,549,134.4,549.1,134.6z M549,73.8C549,73.8,549,73.7,549,73.8c0-0.1,0-0.1,0-0.1C549,73.7,549,73.8,549,73.8z M580.6,135.2c0.1,0.1,0.2,0.2,0.4,0.3 C580.8,135.5,580.7,135.3,580.6,135.2c-0.4-0.8-0.4-1.6-0.4-2.5C580.2,133.6,580.3,134.4,580.6,135.2z M580.2,130.8 c0-0.2,0-0.4,0-0.6v0C580.2,130.4,580.2,130.6,580.2,130.8z M576.9,54.1c2.5,3.1,3.1,7.2,3.3,11.2c0,0,0,0.1,0,0.1 c-0.2-3.9-0.8-8.1-3.4-11.3c-0.6-0.7-1.3-1.4-2-1.9C575.6,52.7,576.3,53.3,576.9,54.1z M548.8,19.3c-0.2,0-0.3,0-0.5,0 C548.5,19.3,548.6,19.3,548.8,19.3C548.8,19.3,548.8,19.3,548.8,19.3z"></path> <path d="M524.2,112.8c-2.3,0-4.6,0-6.9,0h0h-0.2v0.2c0,5.6,0.1,11.3-0.1,16.9c-0.1,0.8-0.2,1.8-0.4,2.6s-0.6,1.5-1.4,2 c-0.4,0.2-0.9,0.3-1.4,0.4c-1,0.1-2.1-0.2-2.8-0.9c-0.1-0.1-0.2-0.3-0.3-0.5c-1-2.6-0.6-5.5-0.7-8.3c0-22.3,0-44.5,0-66.8 c4.6,0,9.2,0,13.7,0h0.2v-0.2c0-2.4,0-4.7,0-7.1v-0.2h-0.2c0,0,0-0.1,0-0.1c-4.5,0-9.1,0-13.6,0c0-7.9,0-15.7,0-23.7V27H510 c0-0.1,0-0.1,0-0.2c-0.5,0.1-0.9,0.1-1.4,0.2c-1.7,0-3.4,0-5.1,0l-0.1,0.1v0.1c-1.7,4.8-3.3,9.7-5.3,14.3c-0.5,1.1-1,2.1-1.6,3.1 c-0.8,1.5-1.8,3.1-3,4.2c-0.2,0.2-0.5,0.5-0.8,0.7c-1.8,1.4-4.1,1.6-6.3,1.5c-0.4-0.1-0.6-0.1-0.7,0c-0.1,0-0.1,0-0.2,0.1 c-0.2,0.2-0.2,0.4-0.2,0.6c0,0.2,0,0.4,0,0.6s0,0.4,0,0.5c0,1.7,0,3.4,0,5.2v0.2h0.2c2,0,4,0,6,0c0,22.8,0,45.7,0,68.5 c0.2,4,0.4,8.4,2.5,12c1.4,2.1,3.5,3.7,6,4.3c3.8,1.1,7.8,1.1,11.7,0.8c3.4-0.4,6.9-1.7,9.1-4.5c2-2.4,2.9-5.4,3.3-8.4 c0.5-4.3,0.2-8.7,0.3-13c0-1.6,0-3.3,0-4.9v-0.2H524.2L524.2,112.8z M510,58h-0.1c0,0,0-0.1,0-0.1c4.6,0,9.2,0,13.8,0 c0,0,0,0.1,0,0.1C519.1,58,514.5,58,510,58z M485.8,58C485.8,58,485.8,57.9,485.8,58c2-0.1,3.8-0.1,5.8-0.1c0,0,0,0.1,0,0.1 C489.7,58,487.7,58,485.8,58z M520.6,139.2c-2.1,2.7-5.5,3.9-8.8,4.4c-3.9,0.3-7.8,0.3-11.6-0.8c-0.6-0.2-1.2-0.4-1.8-0.6 c0.2,0.1,0.4,0.2,0.7,0.2c3.9,1.4,8.1,1.4,12.2,1.1c3.4-0.4,6.9-1.5,9.1-4.2c0.6-0.6,1.1-1.3,1.5-2 C521.5,138,521.1,138.6,520.6,139.2z"></path> <path d="M393,70c-1-5-2.5-10.2-5.7-14.2c-1.8-2.2-4.1-4-6.8-5c-0.2-0.1-0.4-0.1-0.6-0.2c-1.1-0.4-2.3-0.7-3.4-0.8 c-1.8-0.4-3.8-0.4-5.8-0.4c-5.3,0.3-10.4,2.9-13.9,6.9c-3.5,3.6-5.8,8.1-7.5,12.7c-3.3,9.1-4.1,18.9-4.2,28.5 c0.1,9,0.6,18.1,3.2,26.8c1.2,4.1,2.9,8,5.5,11.4c2,2.5,4.5,4.7,7.5,6.1c4.7,2.2,10,2.5,15.1,2c4.1-0.4,8.5-1.7,11.5-4.8 c1.1-1,1.9-2.1,2.6-3.4c1.9-3.5,2.6-7.6,2.9-11.6c0-0.2,0-0.4,0-0.7c0-0.4,0-0.7,0-1.1c0-0.3,0-0.6,0-0.8c0-0.1,0-0.2,0-0.4 c0-0.1,0-0.3,0-0.4c0-2.4-0.1-4.8-0.3-7.2v-0.1H393c-2.2,0-4.5,0-6.7,0h-0.2v0.2c0.1,4.8,0.1,9.6-0.8,14.3 c-0.4,2.1-1.2,4.2-2.7,5.5c-2.3,1.8-5.5,1.6-8.3,1.5c-1.1-0.1-2.1-0.3-3.1-0.8c-0.9-0.4-1.7-1-2.3-1.7c-1.2-1.6-2-3.9-2.3-6 c-0.9-4.5-1-9.2-1.2-13.8c-0.1-6-0.1-12.1-0.1-18.1c9.8,0,19.5,0,29.2,0h0.2v-0.2c0,0,0-0.1,0-0.1c0,0,0.1,0,0.1,0 C394.7,86.1,394.5,78,393,70z M366.5,64.3c0.4-2.3,0.8-4.9,2.7-6.3c0.8-0.5,1.8-0.6,2.9-0.6c1.5,0,3.3,0.3,4,1.8 c0.1,0.2,0.2,0.3,0.2,0.5c0,0.1,0.1,0.2,0.1,0.3c0.9,2.3,0.7,5,0.9,7.6c0.2,6.7,0,13.3,0.1,20c-4,0-8.1,0-12.2,0 C365.5,79.8,365.5,72,366.5,64.3z M357,56.2c0.5-0.5,1-1,1.6-1.4c-0.3,0.3-0.6,0.5-0.9,0.8c-2.2,2.1-3.9,4.6-5.4,7.2 C353.6,60.4,355.1,58.1,357,56.2z"></path> <path d="M260.2,99.9c-2.2-3.2-4.8-6.1-7.3-9c-3.1-3.5-6.3-6.8-9.2-10.3c-1-1.3-2.1-2.8-3-4.3c-2.1-3.3-3-7.3-2.9-11.2 c0-1.9,0.4-4,1.5-5.4c0.4-0.5,1-0.9,1.5-1.3c2.2-1,4.8-0.8,7.2-0.4c1.5,0.3,3,1.2,4,2.3c0.3,0.4,0.7,0.8,0.9,1.4 c1.8,3.1,2,6.7,2.4,10.2c0.2,1.9,0.5,3.9,0.7,5.8c2.3,0,4.7,0,7,0c0,0,0-0.1,0-0.1c0.2,0,0.3,0,0.5,0h0.2v-0.2c0-8.8,0-17.7,0-26.5 v-0.2h-0.2c-1.9,0-3.9,0-5.8,0h-0.2v0.2c0,0.1,0,0.2,0,0.3c-0.1,0-0.2,0-0.3,0c-0.2,1.4,0,2.9-0.5,4.2c0,0-0.1,0-0.1-0.1 c-0.1-0.1-0.2-0.2-0.3-0.3c-0.1-0.1-0.2-0.2-0.3-0.3c-4.1-3-8.8-5.1-13.7-5.3c-0.9,0-1.8,0-2.7,0.1c-5.2,0.4-10.3,2.6-13.6,6.6 c-3.2,3.6-4.6,8.5-4.9,13.3c-0.2,5,0.1,10.1,1.9,14.9c1.6,4.6,4.5,8.5,7.6,12.2c4.2,5,8.7,9.8,12.8,14.8c0.9,1.3,2.1,2.7,3,4.1 c2.3,3.3,3.5,7.4,3.2,11.5c-0.1,2.3-0.4,4.7-1.7,6.5c-0.7,1-2.1,1.8-3.4,2.1c-2,0.5-4.2,0.5-6.2,0.1c-1.8-0.5-3.3-1.4-4.5-2.9 c-0.8-1.2-1.6-2.6-2.1-4.1c-1.7-4.8-2.1-10-3-15.1v-0.1l-0.1-0.1c-0.3-0.2-0.7-0.1-1.1-0.1c-0.4,0-0.8,0-1.2,0c-1.6,0-3.2,0-4.8,0 h-0.2v0.2c0,9.6,0,19.1,0,28.7v0.2h0.1c0,0,0,0.1,0,0.1c2,0,4,0,6,0c0,0,0-0.1,0-0.1c0,0,0.1,0,0.1,0h0.2v-0.2 c0.4-1.7,0.9-3.5,2.2-4.6c0.1,0,0.1-0.1,0.2-0.1c0.7-0.2,1.2,0.7,1.7,1.1c3.4,3.5,8.2,5.3,13,5.4c3.7,0.1,7.4-0.6,10.7-2.3 c1.1-0.6,2.2-1.2,3.1-2c2.1-1.8,4-4,5.2-6.6c2.7-5.5,2.8-11.9,2.2-17.9C265.4,109.6,263.3,104.4,260.2,99.9z M251.5,59.5 C251.5,59.5,251.5,59.5,251.5,59.5C251.5,59.5,251.5,59.5,251.5,59.5C251.5,59.5,251.5,59.5,251.5,59.5 C251.5,59.5,251.5,59.5,251.5,59.5z M239.7,49.7C239.7,49.7,239.7,49.7,239.7,49.7C239.7,49.7,239.7,49.7,239.7,49.7 c-3.8,0.3-7.5,1.6-10.6,3.9C232.1,51.2,235.9,49.9,239.7,49.7z M244.6,135.8c0.2,0,0.4-0.1,0.6-0.2c-2,0.8-4.3,0.7-6.3,0.5 c-0.9-0.2-1.8-0.5-2.6-0.9c0.6,0.3,1.2,0.5,1.9,0.7C240.3,136.3,242.5,136.3,244.6,135.8z M235.4,134.7c0.2,0.1,0.4,0.3,0.7,0.4 C235.9,135,235.6,134.8,235.4,134.7z M226.9,113.7c-0.2,0-0.3,0-0.4,0C226.6,113.7,226.8,113.7,226.9,113.7z"></path> <path d="M341.5,135.2c-0.8-0.4-1.2-1-1.4-1.8c-0.2-0.8-0.2-1.8-0.3-2.6c-0.1-6.1,0-12.3-0.1-18.4c0-26.4,0-52.8,0-79.1 c0-0.9,0-2,0.2-2.9c0.1-0.9,0.4-1.8,1.1-2.3c1.5-0.9,3.4-0.4,5.3-0.5c0.1,0,0.2,0,0.3,0c0.1,0,0.2-0.1,0.3-0.2 c0.1-0.2,0.1-0.4,0.1-0.6s0-0.5,0-0.7s0-0.4,0-0.5c0-1.5,0-3,0-4.5v-0.2h-0.2h0c-11.7,0-23.5,0-35.2,0h0h-0.2V21c0,2.1,0,4.3,0,6.4 v0.2h0.2c1.9,0.1,3.8-0.2,5.5,0.2c0.7,0.2,1.2,0.7,1.5,1.4c0.3,0.7,0.4,1.6,0.5,2.3c0.2,4.5,0,9.1,0.1,13.6c0,10.6,0,21.2,0,31.8 c-7.6,0-15.2,0-22.9,0c0-14.9,0-29.8,0-44.8c0.1-1.5,0.2-3.3,1.2-4.1c1.5-0.9,3.4-0.4,5.3-0.5h0.1c0.3,0.1,0.5,0.1,0.7,0 c0.2-0.1,0.3-0.2,0.4-0.4c0.1-0.4,0.1-0.8,0-1.2c0-1.7,0-3.4,0-5v-0.2h-0.2c-11.8,0-23.6,0-35.4,0h-0.2v0.1V21v0.1 c0,2.1,0,4.2,0,6.3v0.2h0.2c1.8,0.1,3.7-0.3,5.4,0.3c0.6,0.2,1.1,0.7,1.3,1.3c0.3,0.6,0.4,1.4,0.4,2.1c0.2,5.3,0.1,10.5,0.1,15.8 c0,28.5,0,57.1,0,85.6c0,0.6-0.1,1.3-0.4,1.8s-0.7,0.9-1.4,0.9c-1.8,0.4-3.6,0.1-5.5,0.2h-0.2v0.2c0,2.1,0,4.3,0,6.4v0.2h0.2 c11.8,0,23.6,0,35.4,0h0.2v-0.2c0-2.1,0-4.3,0-6.4v-0.2h-0.2c-1.9-0.1-3.8,0.2-5.6-0.2c-0.7-0.2-1.2-0.8-1.4-1.5 c-0.3-0.7-0.4-1.6-0.5-2.3c-0.1-6.5,0-13,0-19.6c0-9,0-18.1,0-27.1c7.6,0,15.2,0,22.9,0c0,15.3,0,30.7,0,46 c-0.1,0.8-0.1,1.7-0.3,2.5c-0.2,0.8-0.6,1.4-1.3,1.8c-1.6,0.7-3.3,0.3-5.1,0.4h-0.1c-0.3-0.1-0.5-0.1-0.7,0.1 c-0.2,0.1-0.2,0.3-0.2,0.5c0,0.4,0.1,0.9,0,1.1c0,1.6,0,3.2,0,4.8v0.2h0.2h0c11.7,0,23.5,0,35.2,0h0h0.2v-0.2c0-2.1,0-4.3,0-6.4 v-0.2h-0.2C345,135.4,343.1,135.8,341.5,135.2z M346.8,25.5C346.8,25.5,346.8,25.6,346.8,25.5c0,0.2,0,0.2,0,0.3 C346.8,25.7,346.8,25.6,346.8,25.5z M341.6,27.7c-0.1,0.1-0.3,0.1-0.4,0.2C341.3,27.8,341.4,27.7,341.6,27.7z M339.9,133.7 c0,0.1,0.1,0.2,0.1,0.3c-0.3-0.9-0.4-1.9-0.4-2.9C339.6,131.9,339.7,132.8,339.9,133.7z M339.8,30.5c-0.2,1-0.1,2-0.2,2.9 c0,26.4,0,52.8,0,79.2c0,5.4-0.1,10.8,0,16.3c-0.1-5.4,0-10.9-0.1-16.3c0-26.4,0-52.8,0-79.2c0.1-1.8-0.1-4.2,1.4-5.4 c0.1,0,0.1-0.1,0.2-0.1C340.3,28.5,340,29.5,339.8,30.5z M346.9,26.9c0,0.2,0,0.3,0,0.4c0,0,0,0-0.1,0c-0.1,0-0.1,0-0.1,0 c0.2-0.2,0.1-0.8,0.1-1.2c0,0,0,0.1,0,0.1C346.8,26.4,346.9,26.7,346.9,26.9z M303.4,27.3c-0.1,0-0.2,0-0.5,0 c-1.8,0.1-3.8-0.4-5.5,0.6c-0.2,0.2-0.4,0.4-0.5,0.6c0.1-0.2,0.2-0.3,0.3-0.5c1.5-1.3,3.6-0.7,5.3-0.8c0.4,0,0.8,0.1,1.1,0 C303.5,27.2,303.5,27.2,303.4,27.3z M273.9,27.8c-1.8-0.6-3.6-0.2-5.3-0.3c0,0,0-0.1,0-0.1C270.3,27.5,272.2,27.1,273.9,27.8 c0.5,0.1,0.9,0.5,1.2,0.9C274.8,28.3,274.4,28,273.9,27.8z"></path> </g> </svg> 