<?xml version="1.0" encoding="UTF-8"?> <!-- Generator: Adobe Illustrator 25.2.0, SVG Export Plug-In . SVG Version: 6.00 Build 0) --> <svg xmlns="http://www.w3.org/2000/svg" xmlns:xlink="http://www.w3.org/1999/xlink" version="1.1" id="Layer_1" x="0px" y="0px" viewBox="0 0 185 25" style="enable-background:new 0 0 185 25;" xml:space="preserve"> <g> <path d="M23.8,9l-2.5-2.1L18.5,9V0.8h-0.2l-3.5,2.4v0.2c0.4,0.2,1,0.4,1,1.5l-0.1,11.3l-1.3,1l0.2,0.2l0.6-0.5l2.2,2l3-2l-0.1-0.2 l-0.8,0.5l-1-1V9.4l0.8-0.6l1.7,1.4v6.1c0,3.8-0.8,4.4-2.5,5v0.3c2.8,0.1,5.4-0.8,5.4-5.7V9.3l0.9-0.7l-0.2-0.2L23.8,9z"></path> <path d="M184,12.5l-1.9-1.5c1.3-1.1,1.8-2.6,1.8-3.6V6.8h-0.2c-0.2,0.5-0.6,1-1.4,1c-0.8,0-1.3-0.4-1.8-1L176,9.3v3.6l1.7,1.3 c-1.7,1.5-2,2.5-2,3.3c0,1,0.5,1.7,1.3,2l0.1-0.2c-0.2-0.2-0.4-0.3-0.4-0.8c0-0.3,0.4-0.8,1.2-0.8c1,0,1.6,0.7,1.9,1l4.3-2.6v-3.6 H184z M178.3,15.6c-0.3,0-1.1,0-1.9,0.5c0.5-0.8,1.8-2.2,3.5-3.2l1.2,1l0.1,3.6C180.7,16.4,179.5,15.6,178.3,15.6z M179.8,12.5 l-1.1-0.9V8.1c0.4,1,1.5,1.8,2.6,1.8c0.7,0,1.1-0.1,1.6-0.4C182.2,10.7,180.7,11.9,179.8,12.5z"></path> <path d="M31.5,17L29,15v-1.2l4.7-3.2v-0.1l-2.4-3.6l-5.2,2.8v6.6l-1,0.8l0.2,0.2l0.9-0.7l3.4,2.5l4.5-3.6L34,15.1L31.5,17z M29,8.5 l0.2-0.1l2.2,3.5L29,13.4V8.5z"></path> <path d="M53.1,2c0-0.3-0.1-0.6-0.2-0.9h-0.2C52.4,1.9,52,2.3,51,2.3c-0.9,0-1.5-0.5-1.9-0.9l-2.9,3.3l0.2,0.2l1-0.9 c0.6,0.5,1.1,0.9,2.5,1v8.3L44,3.2c-0.5-0.8-1.2-1.9-2.6-1.9c-1.6,0-3,1.4-2.8,3.6h0.3C39,4.3,39.3,3.6,40,3.6c0.5,0,1,0.5,1.3,1 v3.3c-1.8,0-3,0.8-3,2.3c0,0.8,0.4,2,1.6,2.3v-0.2c-0.2-0.2-0.3-0.4-0.3-0.7c0-0.5,0.4-0.9,1.1-0.9h0.5v4.2c-2.1,0-3.8,1.2-3.8,3.2 c0,1.9,1.6,2.8,3.4,2.7v-0.2c-1.1-0.1-1.6-0.6-1.6-1.3c0-0.9,0.6-1.3,1.4-1.3c0.8,0,1.5,0.5,2,1.1l2.9-3.2l-0.2-0.2l-0.7,0.8 c-1.1-1-1.7-1.3-3-1.5V5l8,14h0.6V5C51.7,4.9,53.1,3.7,53.1,2z"></path> <polygon points="146.3,5.6 148.3,3.9 148.3,3.8 146.5,1.9 146.4,1.9 144.4,3.6 144.4,3.7 146.1,5.6 "></polygon> <path d="M143,2.9c0-2-1.9-2.5-3.4-2.5v0.3c0.9,0,1.6,0.3,1.6,1c0,0.4-0.3,1-1.2,1c-0.7,0-2.2-0.4-3.3-0.8c-1.3-0.4-2.5-0.8-3.5-0.8 c-2,0-3.4,1.5-3.4,3.2c0,1.5,1.1,2,1.5,2.2l0.1-0.2c-0.3-0.2-0.6-0.4-0.6-1c0-0.4,0.4-1.1,1.4-1.1c0.9,0,2.1,0.4,3.7,0.9 c1.4,0.4,2.9,0.7,3.7,0.8V9l-1.5,1.3v0.1l1.5,1.3V16c-0.8,0.5-1.7,0.6-2.5,0.6c-1.5,0-2.8-0.4-3.9-1.6l4.1-2V6l-5,2.2 c0.5-1.3,1.6-2.2,2.6-2.9l-0.1-0.2c-3,0.8-5.7,3.5-5.7,6.9c0,4,3.3,7,7,7c4,0,6.6-3.2,6.6-6.5h-0.2c-0.6,1.3-1.5,2.5-2.6,3.1v-4.1 l1.6-1.3v-0.1L140,8.8v-3C141.5,5.8,143,4.8,143,2.9z M132,10.7c0-0.7,0.1-1.5,0.3-2.1l2.1-0.9l-0.1,6.2l-1.2,0.6 C132.4,13.6,132,12.4,132,10.7z"></path> <polygon points="148.7,17.2 147.7,16.2 147.7,9.3 148.7,8.6 148.5,8.4 147.8,9 146,6.9 143.1,8.9 143.3,9.2 144,8.7 144.9,9.8 144.9,16.3 143.6,17.3 143.7,17.5 144.4,17 146.6,19 149.6,17 149.5,16.7 "></polygon> <path d="M13.8,2.9c0-2-1.9-2.5-3.4-2.5v0.3c0.9,0,1.6,0.3,1.6,1c0,0.4-0.3,1-1.2,1c-0.7,0-2.2-0.4-3.3-0.8C6.2,1.4,5,1,4,1 C2,1,0.6,2.5,0.6,4.2c0,1.5,1.1,2,1.5,2.2l0.1-0.2C2,6,1.7,5.8,1.7,5.2c0-0.4,0.4-1.1,1.4-1.1C4,4.1,5.2,4.5,6.8,5 c1.4,0.4,2.9,0.7,3.7,0.8v3.1L9,10.2v0.1l1.5,1.3v4.3c-0.8,0.5-1.7,0.6-2.5,0.6c-1.5,0-2.8-0.4-3.9-1.6l4.1-2V6l-5,2.2 C3.6,6.9,4.7,6,5.8,5.4L5.7,5.1c-3,0.8-5.7,3.6-5.7,7c0,4,3.3,7,7,7c4,0,6.6-3.2,6.6-6.5h-0.2c-0.6,1.3-1.5,2.5-2.6,3.1v-4.1 l1.6-1.3v-0.1l-1.6-1.3V5.8C12.3,5.8,13.8,4.8,13.8,2.9z M2.8,10.7c0-0.7,0-1.5,0.2-2.1l2.1-0.9v6.2l-1.2,0.6 C3.2,13.6,2.8,12.4,2.8,10.7z"></path> <path d="M76,8.5l-1.9-1.6l-2.2,2l0.9,0.9v7.5l-2.4-1.5V9.6l0.8-0.5l-2.3-2.2l-2.2,2l0.9,0.9V17l-0.3,0.2l-2.1-1.5v-6 c0-1.4-0.7-1.8-1.5-2.3c-0.7-0.5-1.1-0.8-1.1-1.5c0-0.6,0.6-0.9,0.9-1.1V4.6c-0.8,0-2.9,0.8-2.9,2.7c0,1,0.5,1.4,1,1.9s1,0.9,1,1.8 v5.8l-1.1,0.8l0.2,0.2l1-0.8l2.3,2l2.5-1.7l2.8,1.7l5.3-3.1V9.2l1.3-1L76.7,8L76,8.5z"></path> <path d="M95.3,2.5l-1,0.9l-2.2-2l-3.3,2.4V1.6h-0.3l0.1,16.2c-0.3,0-1.2-0.2-1.9-0.4L86.5,3.9c0-1-0.7-2.4-2.5-2.4s-3,1.4-3,2.8 h0.3c0.1-0.6,0.4-1.1,1-1.1c0.6,0,1.1,0.4,1.1,1.7v3.9c-1.8,0.1-2.9,1.1-2.9,2.4c0,0.8,0.4,2,1.6,2V13c-0.4-0.2-0.5-0.5-0.5-0.7 c0-0.6,0.5-0.8,1.3-0.8h0.4v6.2c-1.5,0.5-2.1,1.6-2.1,2.8c0,1.7,1.3,2.9,3.3,2.9c1.4,0,2.6-0.2,3.8-0.5c1-0.2,2.3-0.5,2.9-0.5 c0.8,0,1.1,0.4,1.1,0.9c0,0.7-0.3,1-0.7,1.1v0.2c1.6-0.3,2.6-1.3,2.6-2.8s-1.5-2.4-3.1-2.4c-0.8,0-2.5,0.3-3.7,0.5 c-1.4,0.3-2.8,0.5-3.2,0.5c-0.7,0-1.5-0.3-1.5-1.3c0-0.8,0.7-1.5,2.4-1.5c0.9,0,2,0.1,3.1,0.4c1.2,0.3,2.3,0.6,3.3,0.6 c1.5,0,2.8-0.5,2.8-2.6V3.7l1.2-1L95.3,2.5L95.3,2.5z M91.2,16.3c0,0.8-0.5,1.6-1.6,1.6h-0.8V12c0.2-0.2,0.7-0.5,1.2-0.5 s0.9,0.3,1.2,0.5V16.3z M91.2,11.6c-0.2-0.2-0.7-0.5-1.2-0.5s-1,0.3-1.2,0.5V9C89,9.2,89.5,9.5,90,9.5s1-0.3,1.2-0.5V11.6z M91.2,8.6c-0.3,0.3-0.7,0.6-1.2,0.6s-1-0.3-1.2-0.6V4.2l1-0.7l1.4,1.3V8.6z"></path> <path d="M57.9,17l-2.5-2v-1.2l4.7-3.2v-0.1l-2.4-3.6l-5.2,2.8v6.6l-1,0.8l0.2,0.2l0.9-0.7l3.4,2.5l4.5-3.6l-0.1-0.4L57.9,17z M55.4,8.5l0.2-0.1l2.2,3.5l-2.4,1.5V8.5z"></path> <path d="M119.1,17.2l-1-1V0.8H118l-3.6,2.4v0.2c0.4,0.2,1,0.3,1,1.5c0,0,0,11.3,0,11.3l-1.3,1l0.2,0.2l0.6-0.5l2.2,2l3-2l-0.2-0.2 L119.1,17.2z"></path> <path d="M96.8,9.7v6.5l-1,0.8l0.1,0.2l0.8-0.6l3.2,2.4l5-3V9.2l-3.2-2.3L96.8,9.7z M102,17.2l-2.5-1.7V8.3l2.5,1.8V17.2z"></path> <polygon points="164.4,16.1 164.4,9.3 165.4,8.5 165.2,8.3 164.4,9 162.1,6.9 159.1,9 156.8,6.9 154,9 152.2,6.9 149.3,8.9 149.4,9.2 150.1,8.7 151.1,9.8 151.1,16.3 150.3,17.1 152.6,19 154.8,17 153.9,16.1 153.9,9.3 154.8,8.7 156.3,10.1 156.3,16.1 155.5,16.9 157.8,18.8 160,16.8 159.1,15.9 159.1,9.3 159.9,8.8 161.5,10.2 161.5,16.2 160.8,16.9 163.1,19 166.2,16.9 166.2,16.6 165.5,17.1 "></polygon> <path d="M112.1,10c1.4,0.1,2.2-1.3,2.3-2.9h-0.2c-0.3,0.2-0.6,0.4-0.9,0.4c-0.4,0-0.9-0.2-1.1-0.5H112l-1.7,1.9L108.6,7l-3,2 l0.1,0.2l0.8-0.5l1,1.1v6.3l-1.3,1l0.2,0.2l0.6-0.5l2.4,2l3.1-2.1l-0.1-0.2l-0.9,0.5l-1.2-1V9C110.8,9.5,111.4,10,112.1,10z"></path> <path d="M120.4,9.8l0.3-0.5c0.6,0.3,1.1,0.8,2.1,0.8s2.4-1.2,2.5-3.2h-0.2c-0.3,0.4-0.8,0.8-1.5,0.8c-0.7,0-1.3-0.4-1.7-0.8h-0.2 l-3.3,5.1l4.6,7l3.4-2.3v-0.1l-1,0.6L120.4,9.8z"></path> <path d="M172.4,17l-2.5-2v-1.2l4.7-3.2v-0.1l-2.4-3.6L167,9.7v6.8l3.5,2.5l4.5-3.6l-0.1-0.3L172.4,17z M169.9,8.5l0.2-0.1l2.2,3.5 l-2.4,1.5V8.5z"></path> </g> </svg> 