<?xml version="1.0" encoding="UTF-8"?> <!-- Generator: Adobe Illustrator 25.2.0, SVG Export Plug-In . SVG Version: 6.00 Build 0) --> <svg xmlns="http://www.w3.org/2000/svg" xmlns:xlink="http://www.w3.org/1999/xlink" version="1.1" id="Layer_1" x="0px" y="0px" viewBox="0 0 579.9 119.1" style="enable-background:new 0 0 579.9 119.1;" xml:space="preserve"> <g> <path d="M73.6,10.4h1V4.7H58.2v5.7h1c2.3,0,3.4,1.6,3.1,6l-5.8,59.9l-6.7-59.9c-0.6-4.7,0.6-6,3.1-6h0.3V4.7H30.3v5.7h1.1 c2.1,0,2.1,0.9,2.6,6l1.7,15.3l-5.3,48.5l-6-63.8c-0.7-5.1,0.3-6,2.6-6h0.3V4.7H4.2v5.7h1.1c2.4,0,2.6,0.9,3.1,6l10.3,100.1h14.8 L39.3,65l6,51.5c0.2,0.1,14.9,0.1,14.9,0.1L70.3,16.4C70.9,11.3,71.9,10.4,73.6,10.4z"></path> <path d="M91,31.2c-18.1,0-20.8,15.1-20.8,43.2c0,27.9,2.5,43.2,20.8,43.2s20.8-15.3,20.8-43.2C111.8,46.3,109.1,31.2,91,31.2z M91,110.3c-4,0-4-2.3-4-35.9c0-33.8,0-36.1,4-36.1s4,2.3,4,36.1C95,108.1,95,110.3,91,110.3z"></path> <path d="M205.1,72h22.1c0-32.1-3-40.9-17.8-40.9c-13.8,0-21,8.4-21,43.8c0,33.7,5.4,42.8,21,42.7c13.8,0,17.7-4.3,17.1-27.7h-5.8 c0,18.5-0.9,20-7.6,20c-8.4,0-8-3.4-8-35.2V72z M209.5,38.1c3.6,0,3.3,1.4,3.3,28h-7.7C205.4,39.4,205.8,38.1,209.5,38.1z"></path> <path d="M274.2,108V45.4c0-10.3-2.4-14.3-12.6-14.3c-6.4,0-10.3,2-12.7,8.3v-8.3l-21.1,1.6v5.7h2.3c1.3,0,2.3,1,2.3,4.1v65 c0,2.6-0.6,3.3-2.3,3.3h-0.9v5.8h22v-5.7h-1c-1.3,0-1.3-0.4-1.3-2.1V50.9c0-7,0-9.4,4.6-9.4c3.1,0,3.3,1.1,3.3,7v59.8 c0,2.1-0.9,2.6-1.7,2.6h-1v5.7h23.1v-5.7h-1C274.6,110.9,274.2,110.3,274.2,108z"></path> <path d="M183.3,108V45.4c0-10.3-2.1-14.3-12.3-14.3c-5.9,0-10.1,1.9-12.8,8.3c-1.1-5.7-4.1-8.3-12-8.3c-6.4,0-9.8,2-12.4,8.3v-8.3 l-19.7,1.6v5.7h0.9c1.3,0,2.3,1,2.3,4.1v65c0,2.6-0.6,3.3-2.3,3.3h-0.9v5.7h22v-5.7h-0.9c-1.1,0-1.4-0.4-1.4-2.1V50.9 c0-7-0.1-9.4,4.3-9.4c3,0,3,1.1,3,7v59.8c0,2.1-0.7,2.6-1.7,2.6h-1v5.7h22.5v-5.7h-0.3c-1.6,0-2.1-0.6-2.1-2.9V50.9 c0-7,0-9.4,4.4-9.4c3,0,3,1.1,3,7v59.8c0,2.1-0.7,2.6-1.9,2.6h-0.7v5.7h23v-5.7h-1C183.7,110.9,183.3,110.3,183.3,108z"></path> <path d="M461.7,99.9c0,8.4-0.1,9.3-1.7,9.3c-1.4,0-1.4-0.7-1.4-5.4V48.2c0-11.3-3.7-17.1-16.8-17.1c-10.4,0-20.7,3.1-20.1,14.4 c0.3,5.1,2.3,10.6,7.7,10.3c5-0.3,7.3-3,7.3-7.1c0-2.9-2.1-7.6-5.6-10.1c1.3-0.6,3.3-1.1,6.6-1.1c3.7,0,4.4,2.9,4.4,8.3v15.5 c-19,6.4-23,9-23,32.8c-0.1,17,4,23.5,12.6,23.5c7.6,0,10.4-3.7,12-8.1c1.4,6.6,3,8.1,11.6,8.1c10,0,11.3-6,11.1-17.7H461.7z M441.9,101c0,5.3-0.7,6.6-3.4,6.6c-3.4,0-3.4-3.6-3.4-14.8c0-20.5,0-23.3,6.8-27V101z"></path> <path d="M513.4,10.4h-5.8c-4.1,19-7.7,21.4-13.3,21.4h-1.6v6.3h3.9v60.8c0,13.6,2,18.7,15.4,18.7c9.4,0,11.6-3.7,11.6-14.1V89.3 h-5.7v14.8c0,5-0.4,5.6-2.3,5.6c-1.9,0-2.3-0.6-2.3-5V38.2h10.4v-6.4h-10.3V10.4z"></path> <path d="M573.9,110.9c-1.6,0-1.9-0.6-1.9-2.9V45.4c0-10.3-2.6-14.3-12.6-14.3c-6.6,0-10.3,2-13,8.3V3l-21,1.7v5.7h2.1 c1.4,0,2.3,0.9,2.3,4v93.2c0,2.6-0.4,3.3-2.3,3.3H527v5.7h21.8v-5.7h-0.7c-1.4,0-1.6-0.4-1.6-2.1V50.9c0-7,0.1-9.4,4.6-9.4 c3.3,0,3.3,1.1,3.3,7v59.8c0,2.1-0.6,2.6-1.6,2.6h-1v5.7h23.1v-5.7H573.9z"></path> <path d="M291.5,9.6c-2.6-4-8.4-6.6-12.7-3c-5.1,4.3-3.9,11.7,5.7,16c-1.7,2-5.7,5.9-9,9.1l3.6,3.7C293.4,24.8,296.2,16.9,291.5,9.6 z"></path> <path d="M488.6,107.9V3l-21.3,1.7v5.7h2.4c1.4,0,2,0.6,2,2.9v94.9c0,2.1-0.1,2.7-1.1,2.7h-1.1v5.7h22.8v-5.7h-1.7 C489.2,110.9,488.6,110.2,488.6,107.9z"></path> <path d="M302.4,38.3c5.4,0,6.3,2.3,7.3,10.4l0.9,8h6.3V31.8h-5c-0.3,3.1-1,4.3-1.3,3.9c-1.6-1.9-5.3-4.6-11.4-4.6 c-9.1,0-17.1,4.1-17.1,17.7c0,21.1,21.7,37.2,21.7,53.4c0,7-1.6,8.1-6.6,8.1s-6.3-2.3-7.3-12.8l-0.7-7h-6.6v26.1h5.7 c0.4-2.9,1.4-4.7,2.3-3.9c1.8,2.1,3.8,4.9,12.2,4.9c10.4,0,15.8-6.8,15.8-17.1c0-24.1-21.8-38.1-21.8-55.4 C296.8,39.8,298.7,38.3,302.4,38.3z"></path> <path d="M373.1,104.9V16.4c0-5.1,0.4-6,2.9-6h2.3V4.7h-27.4v5.7h2.1c2.3,0,3,0.9,3,6v38.7h-14.6V16.4c0-5.1,0.7-6,3.1-6h1.9V4.7 H319v5.7h2.4c2.3,0,3,0.9,3,6v91.3c0,2.4-0.7,3.1-3,3.1H319v5.8h27.5v-5.7h-1.9c-2.4,0-3.1-1-3.1-6V61.8H356v43.1c0,5-0.7,6-3,6 h-2.1v5.7h27.4v-5.7H376C373.6,110.9,373.1,109.9,373.1,104.9z"></path> <path d="M417.7,72c0-32.1-3.6-40.9-18.7-40.9c-13.7,0-20.8,8.4-20.8,43.8c0,33.7,5.4,42.8,20.8,42.7c14.1,0,17.4-4.3,16.7-27.7 h-5.9c0,18.5-0.6,20-7.1,20c-7.8,0-7.8-3.4-7.8-35.2V72H417.7z M394.8,66.1c0.4-26.7,0.7-28,4.4-28c3.7,0,3.1,1.4,3.1,28H394.8z"></path> </g> </svg> 